<svg xmlns="http://www.w3.org/2000/svg" width="23" height="23" viewBox="0 0 23 23"><path d="M59.5,48A11.5,11.5,0,1,0,71,59.5,11.5,11.5,0,0,0,59.5,48ZM58.309,69.286A9.858,9.858,0,0,1,52,53.105a10.923,10.923,0,0,1,.111,1.337c-.091,1.316-.22,2.139.55,3.249a5.361,5.361,0,0,1,.52,1.552c.143.49.713.746,1.107,1.048.794.609,1.553,1.316,2.4,1.852.556.354.9.529.74,1.207a4.284,4.284,0,0,1-.449,1.367,2.771,2.771,0,0,0,.462,1.238c.415.414.826.795,1.278,1.168C59.411,67.7,58.643,68.454,58.309,69.286ZM66.47,66.47a9.787,9.787,0,0,1-5.117,2.714,4.089,4.089,0,0,1,1.211-1.623,4.118,4.118,0,0,0,1.089-1.346A9.354,9.354,0,0,1,64.4,64.93c.391-.6-.963-1.511-1.4-1.7A14.451,14.451,0,0,1,60.394,61.6c-.625-.44-1.894.23-2.6-.078a13.6,13.6,0,0,1-2.6-1.788c-.867-.653-.825-1.414-.825-2.377.679.025,1.645-.188,2.1.358.142.172.631.942.959.669.267-.224-.2-1.12-.288-1.33-.277-.648.631-.9,1.095-1.34.606-.573,1.906-1.472,1.8-1.882s-1.3-1.574-2-1.393c-.105.027-1.034,1-1.213,1.153q.007-.477.014-.953c0-.2-.374-.406-.357-.536.044-.327.954-.92,1.181-1.181-.159-.1-.7-.564-.864-.5-.4.165-.845.279-1.241.444a2.525,2.525,0,0,0-.037-.394,9.763,9.763,0,0,1,2.505-.727l.779.313.55.652.549.566.48.155.762-.718-.2-.513v-.461a9.749,9.749,0,0,1,4.175,1.648c-.223.02-.468.053-.744.088a2.478,2.478,0,0,0-.385-.145c.361.776.738,1.542,1.12,2.308.409.818,1.315,1.7,1.475,2.56.188,1.018.057,1.943.16,3.141a5.365,5.365,0,0,0,1.3,2.464,2.6,2.6,0,0,0,1.016.123A9.8,9.8,0,0,1,66.47,66.47Z" transform="translate(-48 -48)"/></svg>