<svg xmlns="http://www.w3.org/2000/svg" width="23" height="23" viewBox="0 0 23 23"><defs><style>.a{fill:#848383;opacity:0.36;}</style></defs><path class="a" d="M154.406,159.114a.689.689,0,0,1-.5-.206.7.7,0,0,1,0-.992l4.058-4.058a.7.7,0,1,1,.992.992l-4.058,4.058A.689.689,0,0,1,154.406,159.114Zm3.1,3.1a.689.689,0,0,1-.5-.206.7.7,0,0,1,0-.992l4.058-4.058a.7.7,0,1,1,.992.992l-4.055,4.061A.712.712,0,0,1,157.511,162.218Zm-1.552,7.214a2.043,2.043,0,0,1-1.449-.6l-1.846-1.845a.878.878,0,0,1,0-1.243,1.763,1.763,0,0,0-2.493-2.493.879.879,0,0,1-1.243,0l-1.846-1.845a2.048,2.048,0,0,1,0-2.9l11.482-11.481a2.049,2.049,0,0,1,2.9,0l1.846,1.845a.878.878,0,0,1,0,1.24,1.763,1.763,0,0,0,2.493,2.493.879.879,0,0,1,1.24,0l1.846,1.845a2.048,2.048,0,0,1,0,2.9L157.4,168.833A2.031,2.031,0,0,1,155.959,169.432Zm-1.507-3.14,1.3,1.3a.3.3,0,0,0,.415,0l11.482-11.481a.3.3,0,0,0,0-.415l-1.3-1.3a3.523,3.523,0,0,1-4.274-.541c-1.156-1.156-.541-4.273-.541-4.273l-1.3-1.3a.3.3,0,0,0-.416,0l-11.485,11.477a.3.3,0,0,0,0,.415l1.3,1.3a3.519,3.519,0,0,1,4.818,4.818Z" transform="translate(-146.483 -146.432)"/></svg>