<svg xmlns="http://www.w3.org/2000/svg" xmlns:xlink="http://www.w3.org/1999/xlink" width="346.198" height="154.35" viewBox="0 0 346.198 154.35">
  <defs>
    <clipPath id="clip-path">
      <rect width="346.198" height="154.35" fill="none"/>
    </clipPath>
    <filter id="Caminho_14" x="185.295" y="-2.457" width="164.588" height="161.507" filterUnits="userSpaceOnUse">
      <feOffset dy="3" input="SourceAlpha"/>
      <feGaussianBlur stdDeviation="3" result="blur"/>
      <feFlood flood-opacity="0.161"/>
      <feComposite operator="in" in2="blur"/>
      <feComposite in="SourceGraphic"/>
    </filter>
    <filter id="Caminho_15" x="-3.685" y="-2.243" width="207.153" height="161.507" filterUnits="userSpaceOnUse">
      <feOffset dy="3" input="SourceAlpha"/>
      <feGaussianBlur stdDeviation="3" result="blur-2"/>
      <feFlood flood-opacity="0.161"/>
      <feComposite operator="in" in2="blur-2"/>
      <feComposite in="SourceGraphic"/>
    </filter>
  </defs>
  <g id="Grupo_33" data-name="Grupo 33" transform="translate(-2434 -1094.639)">
    <g id="Componente" transform="translate(2434 1094.639)" clip-path="url(#clip-path)">
      <g id="Grupo_32" data-name="Grupo 32" transform="translate(5.315 3.543)">
        <g transform="matrix(1, 0, 0, 1, -5.32, -3.54)" filter="url(#Caminho_14)">
          <path id="Caminho_14-2" data-name="Caminho 14" d="M26.176,0h94.235c14.457,0,26.176,11.372,26.176,25.4v92.708c0,14.028-11.72,25.4-26.176,25.4H26.176L0,118.107V22.6Z" transform="translate(194.29 3.54)" fill="#fff"/>
        </g>
        <g transform="matrix(1, 0, 0, 1, -5.32, -3.54)" filter="url(#Caminho_15)">
          <path id="Caminho_15-2" data-name="Caminho 15" d="M19.056,0H165.148l24,22.155v94.833l-24,26.519H19.056A19.053,19.053,0,0,1,0,124.457V19.05A19.053,19.053,0,0,1,19.056,0Z" transform="translate(5.32 3.76)" fill="#fff"/>
        </g>
      </g>
      <line id="Linha_5" data-name="Linha 5" x1="0.591" y2="95.671" transform="translate(194 25.903)" fill="none" stroke="#707070" stroke-width="1" stroke-dasharray="4"/>
    </g>
  </g>
</svg>
